<?xml version="1.0" standalone="yes"?>
<svg xmlns="http://www.w3.org/2000/svg" width="961" height="656">
<path style="fill:#ffffff; stroke:none;" d="M0 0L0 656L961 656L961 0L0 0z"/>
<path style="fill:#616161; stroke:none;" d="M398 128L398 150L442 150L442 172L464 172L464 216L486 216L486 172L464 172L464 150L442 150L442 128L398 128M486 128L486 150L508 150L508 128L486 128M508 150L508 172L530 172L530 150L508 150M530 172L530 216L552 216L552 172L530 172z"/>
<path style="fill:#ababab; stroke:none;" d="M376 216L376 260L398 260L398 282L420 282L420 370L288 370L288 392L222 392L222 458L266 458L266 524L288 524L288 568L310 568L310 502L288 502L288 436L244 436L244 414L288 414L288 392L420 392L420 370L442 370L442 282L420 282L420 260L398 260L398 238L442 238L442 260L464 260L464 238L552 238L552 260L574 260L574 238L618 238L618 260L596 260L596 282L574 282L574 304L596 304L596 326L618 326L618 348L640 348L640 326L618 326L618 304L596 304L596 282L618 282L618 260L640 260L640 216L574 216L574 238L552 238L552 216L464 216L464 238L442 238L442 216L376 216z"/>
<path style="fill:#f1f1f1; stroke:none;" d="M398 238L398 260L420 260L420 282L442 282L442 370L420 370L420 392L288 392L288 414L244 414L244 436L288 436L288 502L310 502L310 568L332 568L332 524L354 524L354 480L420 480L420 568L442 568L442 480L464 480L464 414L508 414L508 568L530 568L530 370L486 370L486 348L596 348L596 326L574 326L574 260L618 260L618 238L574 238L574 260L552 260L552 238L464 238L464 260L442 260L442 238L398 238z"/>
<path style="fill:#010101; stroke:none;" d="M486 260L486 282L508 282L508 260L486 260M574 260L574 282L596 282L596 260L574 260z"/>
<path style="fill:#616161; stroke:none;" d="M574 304L574 326L596 326L596 304L574 304M618 304L618 326L640 326L640 304L618 304z"/>
<path style="fill:#ababab; stroke:none;" d="M464 326L464 348L486 348L486 326L464 326z"/>
<path style="fill:#616161; stroke:none;" d="M596 326L596 348L574 348L574 370L640 370L640 348L618 348L618 326L596 326z"/>
<path style="fill:#ababab; stroke:none;" d="M486 348L486 370L530 370L530 568L552 568L552 370L574 370L574 348L486 348M574 370L574 392L596 392L596 458L618 458L618 392L640 392L640 370L574 370z"/>
<path style="fill:#ffffff; stroke:none;" d="M464 414L464 524L486 524L486 480L508 480L508 414L464 414z"/>
<path style="fill:#ababab; stroke:none;" d="M354 480L354 524L332 524L332 568L354 568L354 546L398 546L398 568L420 568L420 480L398 480L398 524L376 524L376 480L354 480z"/>
<path style="fill:#ffffff; stroke:none;" d="M376 480L376 524L398 524L398 480L376 480z"/>
<path style="fill:#ababab; stroke:none;" d="M442 480L442 568L464 568L464 546L486 546L486 568L508 568L508 480L486 480L486 524L464 524L464 480L442 480z"/>
<path style="fill:#f1f1f1; stroke:none;" d="M397 546L398 547L397 546M485 546L486 547L485 546z"/>
<path style="fill:#616161; stroke:none;" d="M288 568L288 590L354 590L354 568L288 568M398 568L398 590L464 590L464 568L398 568M486 568L486 590L552 590L552 568L486 568z"/>
</svg>
